<?xml version="1.0" encoding="utf-8"?>
<!-- Generator: Adobe Illustrator 17.0.2, SVG Export Plug-In . SVG Version: 6.00 Build 0)  -->
<!DOCTYPE svg PUBLIC "-//W3C//DTD SVG 1.1//EN" "http://www.w3.org/Graphics/SVG/1.1/DTD/svg11.dtd">
<svg version="1.1" id="Layer_1" xmlns="http://www.w3.org/2000/svg" xmlns:xlink="http://www.w3.org/1999/xlink" x="0px" y="0px"
	 width="320px" height="320px" viewBox="0 0 320 320" enable-background="new 0 0 320 320" xml:space="preserve">
<path fill="#CCCCCC" d="M227.291,60.003h-25.708c-13.375-15-17.583-20-22.708-20H142c-5.125,0-9.25,5-22.708,20h-5.542v-6.667
	H99.583v6.667h-5.625c-7.333,0-13.958,5.5-13.958,12.792v97.335c0,7.291,6.625,13.875,13.958,13.875H155v135.996h10V184.005h62.292
	c7.333,0,12.708-6.583,12.708-13.875V72.794C240,65.503,234.625,60.003,227.291,60.003z M160,167.92c-26.467,0-48-21.533-48-48
	s21.533-48,48-48s48,21.533,48,48S186.467,167.92,160,167.92z M160,76.92c-23.71,0-43,19.29-43,43s19.29,43,43,43s43-19.29,43-43
	S183.71,76.92,160,76.92z M160,109.92c5.514,0,10,4.486,10,10c0,5.514-4.486,10-10,10s-10-4.486-10-10
	C150,114.406,154.486,109.92,160,109.92z M144.001,92.921c2.761,0,5,2.239,5,5s-2.239,5-5,5s-5-2.239-5-5
	C139.001,95.159,141.24,92.921,144.001,92.921z M193,119.92c0,18.197-14.804,33-33,33c-7.464,0-14.354-2.494-19.889-6.688
	c4.55,2.042,9.587,3.187,14.889,3.187c20.126,0,36.5-16.373,36.5-36.5c0-1.115-0.058-2.216-0.157-3.306
	C192.413,112.859,193,116.321,193,119.92z"/>
</svg>
